{
    "asset" : {
        "copyright" : "Gifcom",
        "generator" : "Khronos glTF Blender I/O v3.3.32",
        "version" : "2.0"
    },
    "scene" : 0,
    "scenes" : [
        {
            "name" : "Scene",
            "nodes" : [
                0,
                1,
                2,
                3,
                4,
                5,
                6
            ]
        }
    ],
    "nodes" : [
        {
            "mesh" : 0,
            "name" : "Cylinder"
        },
        {
            "mesh" : 1,
            "name" : "Cylinder.001"
        },
        {
            "mesh" : 2,
            "name" : "Cylinder.002"
        },
        {
            "mesh" : 3,
            "name" : "Cube"
        },
        {
            "mesh" : 4,
            "name" : "Cylinder.003"
        },
        {
            "mesh" : 5,
            "name" : "Cube.001"
        },
        {
            "mesh" : 6,
            "name" : "Circle"
        }
    ],
    "materials" : [
        {
            "doubleSided" : true,
            "name" : "Material.001",
            "pbrMetallicRoughness" : {
                "baseColorFactor" : [
                    0.5589415431022644,
                    0.36955854296684265,
                    0.12145156413316727,
                    1
                ],
                "metallicFactor" : 0,
                "roughnessFactor" : 0.7590909004211426
            }
        },
        {
            "doubleSided" : true,
            "name" : "Material.002",
            "pbrMetallicRoughness" : {
                "baseColorFactor" : [
                    0.6329534649848938,
                    0.2876432538032532,
                    0.0904347375035286,
                    1
                ],
                "metallicFactor" : 0,
                "roughnessFactor" : 0.5
            }
        },
        {
            "doubleSided" : true,
            "name" : "\u0e43\u0e1a\u0e23\u0e48\u0e21",
            "pbrMetallicRoughness" : {
                "baseColorTexture" : {
                    "index" : 0
                },
                "metallicFactor" : 0,
                "roughnessFactor" : 0.5
            }
        }
    ],
    "meshes" : [
        {
            "name" : "Cylinder",
            "primitives" : [
                {
                    "attributes" : {
                        "POSITION" : 0,
                        "NORMAL" : 1,
                        "TEXCOORD_0" : 2
                    },
                    "indices" : 3,
                    "material" : 0
                }
            ]
        },
        {
            "name" : "Cylinder.001",
            "primitives" : [
                {
                    "attributes" : {
                        "POSITION" : 4,
                        "NORMAL" : 5,
                        "TEXCOORD_0" : 6
                    },
                    "indices" : 7,
                    "material" : 0
                }
            ]
        },
        {
            "name" : "Cylinder.003",
            "primitives" : [
                {
                    "attributes" : {
                        "POSITION" : 8,
                        "NORMAL" : 9,
                        "TEXCOORD_0" : 10
                    },
                    "indices" : 11,
                    "material" : 1
                }
            ]
        },
        {
            "name" : "Cube.004",
            "primitives" : [
                {
                    "attributes" : {
                        "POSITION" : 12,
                        "NORMAL" : 13,
                        "TEXCOORD_0" : 14
                    },
                    "indices" : 15,
                    "material" : 1
                }
            ]
        },
        {
            "name" : "Cylinder.004",
            "primitives" : [
                {
                    "attributes" : {
                        "POSITION" : 16,
                        "NORMAL" : 17,
                        "TEXCOORD_0" : 18
                    },
                    "indices" : 19,
                    "material" : 1
                }
            ]
        },
        {
            "name" : "Cube.005",
            "primitives" : [
                {
                    "attributes" : {
                        "POSITION" : 20,
                        "NORMAL" : 21,
                        "TEXCOORD_0" : 22
                    },
                    "indices" : 23,
                    "material" : 1
                }
            ]
        },
        {
            "name" : "Circle",
            "primitives" : [
                {
                    "attributes" : {
                        "POSITION" : 24,
                        "NORMAL" : 25,
                        "TEXCOORD_0" : 26
                    },
                    "indices" : 27,
                    "material" : 2
                }
            ]
        }
    ],
    "textures" : [
        {
            "sampler" : 0,
            "source" : 0
        }
    ],
    "images" : [
        {
            "bufferView" : 28,
            "mimeType" : "image/jpeg",
            "name" : "357986176_1195481381082460_2703858626146610156_n"
        }
    ],
    "accessors" : [
        {
            "bufferView" : 0,
            "componentType" : 5126,
            "count" : 9255,
            "max" : [
                1.1997913122177124,
                -4.408993721008301,
                1.2565686702728271
            ],
            "min" : [
                -1.6974583864212036,
                -14.372269630432129,
                -1.640655755996704
            ],
            "type" : "VEC3"
        },
        {
            "bufferView" : 1,
            "componentType" : 5126,
            "count" : 9255,
            "type" : "VEC3"
        },
        {
            "bufferView" : 2,
            "componentType" : 5126,
            "count" : 9255,
            "type" : "VEC2"
        },
        {
            "bufferView" : 3,
            "componentType" : 5123,
            "count" : 53760,
            "type" : "SCALAR"
        },
        {
            "bufferView" : 4,
            "componentType" : 5126,
            "count" : 8730,
            "max" : [
                0.39402323961257935,
                19.494556427001953,
                0.47699564695358276
            ],
            "min" : [
                -0.75031977891922,
                -4.735393524169922,
                -0.6818433403968811
            ],
            "type" : "VEC3"
        },
        {
            "bufferView" : 5,
            "componentType" : 5126,
            "count" : 8730,
            "type" : "VEC3"
        },
        {
            "bufferView" : 6,
            "componentType" : 5126,
            "count" : 8730,
            "type" : "VEC2"
        },
        {
            "bufferView" : 7,
            "componentType" : 5123,
            "count" : 47616,
            "type" : "SCALAR"
        },
        {
            "bufferView" : 8,
            "componentType" : 5126,
            "count" : 1237,
            "max" : [
                1.2938016653060913,
                11.856743812561035,
                1.3824872970581055
            ],
            "min" : [
                -1.4021185636520386,
                10.1626558303833,
                -1.3165397644042969
            ],
            "type" : "VEC3"
        },
        {
            "bufferView" : 9,
            "componentType" : 5126,
            "count" : 1237,
            "type" : "VEC3"
        },
        {
            "bufferView" : 10,
            "componentType" : 5126,
            "count" : 1237,
            "type" : "VEC2"
        },
        {
            "bufferView" : 11,
            "componentType" : 5123,
            "count" : 3366,
            "type" : "SCALAR"
        },
        {
            "bufferView" : 12,
            "componentType" : 5126,
            "count" : 1080,
            "max" : [
                4.4803996086120605,
                16.259883880615234,
                4.580944061279297
            ],
            "min" : [
                -4.533970355987549,
                11.804603576660156,
                -4.426228046417236
            ],
            "type" : "VEC3"
        },
        {
            "bufferView" : 13,
            "componentType" : 5126,
            "count" : 1080,
            "type" : "VEC3"
        },
        {
            "bufferView" : 14,
            "componentType" : 5126,
            "count" : 1080,
            "type" : "VEC2"
        },
        {
            "bufferView" : 15,
            "componentType" : 5123,
            "count" : 1620,
            "type" : "SCALAR"
        },
        {
            "bufferView" : 16,
            "componentType" : 5126,
            "count" : 1237,
            "max" : [
                1.26649010181427,
                18.6270751953125,
                1.3632162809371948
            ],
            "min" : [
                -1.3029435873031616,
                17.01327896118164,
                -1.2078880071640015
            ],
            "type" : "VEC3"
        },
        {
            "bufferView" : 17,
            "componentType" : 5126,
            "count" : 1237,
            "type" : "VEC3"
        },
        {
            "bufferView" : 18,
            "componentType" : 5126,
            "count" : 1237,
            "type" : "VEC2"
        },
        {
            "bufferView" : 19,
            "componentType" : 5123,
            "count" : 3366,
            "type" : "SCALAR"
        },
        {
            "bufferView" : 20,
            "componentType" : 5126,
            "count" : 1080,
            "max" : [
                16.913372039794922,
                17.068981170654297,
                17.03765106201172
            ],
            "min" : [
                -17.05187225341797,
                12.271068572998047,
                -16.894136428833008
            ],
            "type" : "VEC3"
        },
        {
            "bufferView" : 21,
            "componentType" : 5126,
            "count" : 1080,
            "type" : "VEC3"
        },
        {
            "bufferView" : 22,
            "componentType" : 5126,
            "count" : 1080,
            "type" : "VEC2"
        },
        {
            "bufferView" : 23,
            "componentType" : 5123,
            "count" : 1620,
            "type" : "SCALAR"
        },
        {
            "bufferView" : 24,
            "componentType" : 5126,
            "count" : 512,
            "max" : [
                17.063396453857422,
                17.243864059448242,
                17.152681350708008
            ],
            "min" : [
                -17.16529083251953,
                12.294074058532715,
                -17.075593948364258
            ],
            "type" : "VEC3"
        },
        {
            "bufferView" : 25,
            "componentType" : 5126,
            "count" : 512,
            "type" : "VEC3"
        },
        {
            "bufferView" : 26,
            "componentType" : 5126,
            "count" : 512,
            "type" : "VEC2"
        },
        {
            "bufferView" : 27,
            "componentType" : 5123,
            "count" : 768,
            "type" : "SCALAR"
        }
    ],
    "bufferViews" : [
        {
            "buffer" : 0,
            "byteLength" : 111060,
            "byteOffset" : 0,
            "target" : 34962
        },
        {
            "buffer" : 0,
            "byteLength" : 111060,
            "byteOffset" : 111060,
            "target" : 34962
        },
        {
            "buffer" : 0,
            "byteLength" : 74040,
            "byteOffset" : 222120,
            "target" : 34962
        },
        {
            "buffer" : 0,
            "byteLength" : 107520,
            "byteOffset" : 296160,
            "target" : 34963
        },
        {
            "buffer" : 0,
            "byteLength" : 104760,
            "byteOffset" : 403680,
            "target" : 34962
        },
        {
            "buffer" : 0,
            "byteLength" : 104760,
            "byteOffset" : 508440,
            "target" : 34962
        },
        {
            "buffer" : 0,
            "byteLength" : 69840,
            "byteOffset" : 613200,
            "target" : 34962
        },
        {
            "buffer" : 0,
            "byteLength" : 95232,
            "byteOffset" : 683040,
            "target" : 34963
        },
        {
            "buffer" : 0,
            "byteLength" : 14844,
            "byteOffset" : 778272,
            "target" : 34962
        },
        {
            "buffer" : 0,
            "byteLength" : 14844,
            "byteOffset" : 793116,
            "target" : 34962
        },
        {
            "buffer" : 0,
            "byteLength" : 9896,
            "byteOffset" : 807960,
            "target" : 34962
        },
        {
            "buffer" : 0,
            "byteLength" : 6732,
            "byteOffset" : 817856,
            "target" : 34963
        },
        {
            "buffer" : 0,
            "byteLength" : 12960,
            "byteOffset" : 824588,
            "target" : 34962
        },
        {
            "buffer" : 0,
            "byteLength" : 12960,
            "byteOffset" : 837548,
            "target" : 34962
        },
        {
            "buffer" : 0,
            "byteLength" : 8640,
            "byteOffset" : 850508,
            "target" : 34962
        },
        {
            "buffer" : 0,
            "byteLength" : 3240,
            "byteOffset" : 859148,
            "target" : 34963
        },
        {
            "buffer" : 0,
            "byteLength" : 14844,
            "byteOffset" : 862388,
            "target" : 34962
        },
        {
            "buffer" : 0,
            "byteLength" : 14844,
            "byteOffset" : 877232,
            "target" : 34962
        },
        {
            "buffer" : 0,
            "byteLength" : 9896,
            "byteOffset" : 892076,
            "target" : 34962
        },
        {
            "buffer" : 0,
            "byteLength" : 6732,
            "byteOffset" : 901972,
            "target" : 34963
        },
        {
            "buffer" : 0,
            "byteLength" : 12960,
            "byteOffset" : 908704,
            "target" : 34962
        },
        {
            "buffer" : 0,
            "byteLength" : 12960,
            "byteOffset" : 921664,
            "target" : 34962
        },
        {
            "buffer" : 0,
            "byteLength" : 8640,
            "byteOffset" : 934624,
            "target" : 34962
        },
        {
            "buffer" : 0,
            "byteLength" : 3240,
            "byteOffset" : 943264,
            "target" : 34963
        },
        {
            "buffer" : 0,
            "byteLength" : 6144,
            "byteOffset" : 946504,
            "target" : 34962
        },
        {
            "buffer" : 0,
            "byteLength" : 6144,
            "byteOffset" : 952648,
            "target" : 34962
        },
        {
            "buffer" : 0,
            "byteLength" : 4096,
            "byteOffset" : 958792,
            "target" : 34962
        },
        {
            "buffer" : 0,
            "byteLength" : 1536,
            "byteOffset" : 962888,
            "target" : 34963
        },
        {
            "buffer" : 0,
            "byteLength" : 111525,
            "byteOffset" : 964424
        }
    ],
    "samplers" : [
        {
            "magFilter" : 9729,
            "minFilter" : 9987
        }
    ],
    "buffers" : [
        {
            "byteLength" : 1075952,
            "uri" : "data:application/octet-stream;base64,"
        }
    ]
}
